<?xml version="1.0" encoding="UTF-8" ?>
<!DOCTYPE svg PUBLIC "-//W3C//DTD SVG 1.1//EN" "http://www.w3.org/Graphics/SVG/1.1/DTD/svg11.dtd">
<svg width="163pt" height="27pt" viewBox="0 0 487 81" version="1.1" xmlns="http://www.w3.org/2000/svg">
<g id="#000000ff">
<path fill="#000000" opacity="1.00" d=" M 79.41 1.63 C 88.83 -0.45 99.11 0.63 107.50 5.55 C 117.52 10.95 124.94 20.90 127.29 32.03 C 129.46 42.16 127.62 53.17 121.88 61.84 C 117.60 68.87 110.84 74.15 103.33 77.38 C 91.86 82.07 78.09 81.11 67.60 74.39 C 51.10 64.96 43.89 42.76 51.48 25.38 C 56.15 13.53 66.98 4.35 79.41 1.63 M 79.00 11.15 C 67.95 14.47 59.59 24.60 57.83 35.93 C 62.67 35.96 67.51 35.98 72.35 35.92 C 74.51 28.84 81.49 23.49 88.98 23.97 C 96.11 24.03 102.15 29.42 104.42 35.95 C 109.22 35.96 114.02 35.97 118.82 35.93 C 117.80 30.27 115.47 24.81 111.68 20.43 C 103.90 11.27 90.46 7.27 79.00 11.15 M 85.45 33.62 C 80.29 35.48 79.22 43.22 83.80 46.30 C 87.86 49.77 94.84 47.17 95.61 41.88 C 96.99 36.34 90.63 31.03 85.45 33.62 M 57.87 44.95 C 59.46 55.89 67.34 65.57 77.73 69.32 C 88.47 73.39 101.33 70.63 109.58 62.68 C 114.49 57.98 117.63 51.61 118.83 44.95 C 114.00 44.93 109.17 44.92 104.34 44.96 C 102.15 51.93 95.37 57.30 87.93 56.92 C 80.68 56.96 74.52 51.54 72.20 44.92 C 67.42 44.96 62.65 44.92 57.87 44.95 Z" />
<path fill="#000000" opacity="1.00" d=" M 232.97 3.00 C 236.66 3.00 240.36 3.00 244.05 3.00 C 240.71 6.60 237.83 10.72 234.11 13.92 C 231.27 14.14 228.42 13.98 225.58 14.00 C 228.09 10.36 230.50 6.66 232.97 3.00 Z" />
<path fill="#000000" opacity="1.00" d=" M 444.00 18.96 C 454.18 17.47 464.99 15.45 475.00 18.84 C 480.93 20.66 486.07 26.60 484.73 33.07 C 484.25 36.83 481.51 39.65 478.54 41.73 C 482.95 43.12 486.67 46.67 487.00 51.48 L 487.00 53.62 C 485.68 62.54 476.42 67.46 468.13 67.85 C 460.06 68.08 451.97 67.11 444.02 65.77 C 443.97 50.17 444.01 34.57 444.00 18.96 M 457.43 29.74 C 457.44 32.49 457.43 35.23 457.43 37.98 C 461.13 37.85 464.95 38.50 468.56 37.47 C 471.35 36.72 472.82 32.62 470.15 30.82 C 466.48 28.14 461.61 29.40 457.43 29.74 M 457.46 47.20 C 457.44 49.83 457.43 52.46 457.42 55.09 C 461.67 55.91 466.65 57.06 470.56 54.59 C 472.83 53.38 473.08 49.51 470.57 48.43 C 466.53 46.32 461.81 47.46 457.46 47.20 Z" />
<path fill="#000000" opacity="1.00" d=" M 0.00 18.00 C 7.01 18.05 14.03 17.91 21.04 18.03 C 27.65 18.21 34.49 21.19 38.13 26.90 C 43.32 34.51 41.01 46.25 32.92 50.91 C 27.12 54.71 19.72 54.55 13.42 52.11 C 13.45 57.07 13.44 62.03 13.44 66.99 C 8.96 67.00 4.48 67.00 0.00 67.00 L 0.00 18.00 M 13.44 41.77 C 16.93 42.84 21.06 43.55 24.23 41.24 C 27.39 39.41 28.14 34.23 24.93 32.07 C 21.47 30.07 17.26 30.83 13.45 30.69 C 13.43 34.38 13.44 38.07 13.44 41.77 Z" />
<path fill="#000000" opacity="1.00" d=" M 137.00 18.00 C 141.48 18.00 145.96 18.00 150.44 18.01 C 150.45 23.99 150.42 29.98 150.45 35.97 C 155.87 30.25 160.33 23.59 165.91 18.08 C 171.26 17.84 176.63 18.09 181.99 18.00 C 176.07 24.70 170.16 31.43 164.23 38.13 C 170.89 47.74 177.60 57.31 184.16 66.99 C 178.41 67.01 172.65 67.00 166.90 67.00 C 162.92 60.89 159.07 54.70 155.02 48.64 C 153.46 50.27 151.94 51.94 150.45 53.63 C 150.43 58.08 150.44 62.54 150.44 66.99 C 145.96 67.00 141.48 67.00 137.00 67.00 C 137.00 50.67 137.00 34.33 137.00 18.00 Z" />
<path fill="#000000" opacity="1.00" d=" M 214.00 18.00 C 225.81 18.00 237.62 17.99 249.44 18.01 C 249.44 21.73 249.44 25.45 249.43 29.17 C 242.10 29.22 234.77 29.14 227.44 29.22 C 227.43 31.81 227.44 34.40 227.44 37.00 C 233.96 37.01 240.48 36.99 247.00 37.00 C 247.00 40.40 247.00 43.79 246.99 47.18 C 240.48 47.19 233.98 47.19 227.47 47.18 C 227.44 49.89 227.43 52.60 227.44 55.31 C 234.78 55.33 242.12 55.27 249.46 55.34 C 249.43 59.22 249.44 63.11 249.44 66.99 C 237.63 67.01 225.81 67.00 214.00 67.00 C 214.00 50.67 214.00 34.33 214.00 18.00 Z" />
<path fill="#000000" opacity="1.00" d=" M 286.01 17.82 C 290.48 17.81 294.95 17.80 299.43 17.83 C 299.45 24.21 299.44 30.60 299.43 36.99 C 305.81 37.01 312.19 37.01 318.57 36.99 C 318.56 30.60 318.55 24.21 318.57 17.83 C 323.04 17.80 327.52 17.81 331.99 17.82 C 332.01 34.21 332.00 50.60 332.00 67.00 C 327.52 67.00 323.04 67.00 318.56 66.99 C 318.56 61.00 318.56 55.01 318.57 49.01 C 312.19 48.99 305.81 48.99 299.43 49.01 C 299.44 55.01 299.44 61.00 299.44 67.00 C 294.96 67.00 290.48 67.00 286.00 67.00 C 286.00 50.60 285.99 34.21 286.01 17.82 Z" />
<path fill="#000000" opacity="1.00" d=" M 366.00 18.00 C 370.48 18.00 374.96 18.00 379.44 18.01 C 379.44 27.33 379.44 36.66 379.43 45.98 C 379.42 48.78 380.01 51.95 382.45 53.66 C 385.67 55.96 390.41 55.86 393.62 53.60 C 395.87 51.83 396.61 48.86 396.57 46.12 C 396.56 36.75 396.55 27.38 396.56 18.01 C 401.04 18.00 405.52 18.00 410.00 18.00 C 409.98 27.69 410.03 37.37 409.99 47.06 C 409.97 53.24 407.51 59.63 402.44 63.38 C 394.12 69.45 381.89 69.46 373.57 63.39 C 368.49 59.66 366.02 53.26 366.02 47.09 C 365.97 37.39 366.02 27.70 366.00 18.00 Z" />
<path fill="#000000" opacity="1.00" d=" M 86.30 36.38 C 89.33 34.68 93.42 37.57 92.82 41.00 C 92.59 44.54 87.68 46.34 85.24 43.74 C 82.90 41.77 83.55 37.64 86.30 36.38 Z" />
</g>
</svg>
